<svg id="Layer_1" data-name="Layer 1" xmlns="http://www.w3.org/2000/svg" viewBox="0 0 580.77 282.75"><defs><style>.cls-1,.cls-2,.cls-4,.cls-5,.cls-6,.cls-7,.cls-8,.cls-9{stroke:#000;stroke-miterlimit:10;}.cls-1,.cls-2{stroke-width:3px;}.cls-2{fill:#262626;}.cls-3,.cls-9{fill:#fff;}.cls-4,.cls-6{fill:none;}.cls-4,.cls-5{stroke-width:5px;}.cls-6,.cls-8{stroke-width:2px;}.cls-9{stroke-width:0.25px;}</style></defs><title>Punk Review Logo</title><path d="M-385.47-39a1.5,1.5,0,0,0,0-3,1.5,1.5,0,0,0,0,3Z" transform="translate(386.92 42.04)"/><path d="M-385.47-34.75a1.5,1.5,0,0,0,0-3,1.5,1.5,0,0,0,0,3Z" transform="translate(386.92 42.04)"/><path d="M-301.42,1.45a1.5,1.5,0,0,0,0-3,1.5,1.5,0,0,0,0,3Z" transform="translate(386.92 42.04)"/><polygon class="cls-1" points="438.84 281.25 392.1 200.68 438.84 120.09 532.3 120.09 579.03 200.68 532.3 281.25 438.84 281.25"/><polygon class="cls-2" points="525.4 131.99 445.74 131.99 405.9 200.68 445.74 269.36 525.4 269.36 565.23 200.68 525.4 131.99"/><path class="cls-3" d="M104.09,36.31C78.67,33.4,56.5,43.75,54.57,59.44,53.31,69.68,61,79.65,73.52,86.16L57.77,106l74.89,8.6-11-22.81c13.84-3.48,23.77-11.46,25-21.73C148.57,54.32,129.52,39.23,104.09,36.31Z" transform="translate(386.92 42.04)"/><path class="cls-4" d="M104.09,36.31C78.67,33.4,56.5,43.75,54.57,59.44,53.31,69.68,61,79.65,73.52,86.16L57.77,106l74.89,8.6-11-22.81c13.84-3.48,23.77-11.46,25-21.73C148.57,54.32,129.52,39.23,104.09,36.31Z" transform="translate(386.92 42.04)"/><path class="cls-5" d="M91.25,58.29A10.64,10.64,0,1,1,70,58.47C69.92,52.4,91.19,52.21,91.25,58.29Z" transform="translate(386.92 42.04)"/><path d="M94.43,78.78c-.5,2.91-3.39,4.37-6.05,4.84-1.9.33-1.09,3.22.8,2.89,3.61-.63,7.48-3.05,8.14-6.93.32-1.89-2.57-2.7-2.89-.8Z" transform="translate(386.92 42.04)"/><path d="M99.5,79.39c.34,4,2,8.49,6.11,10,1.82.66,2.6-2.24.8-2.89-2.66-1-3.7-4.58-3.91-7.09-.16-1.91-3.16-1.93-3,0Z" transform="translate(386.92 42.04)"/><path class="cls-6" d="M89.94,70.87c-2.62,4.74-13.51,4-24.36-1.6" transform="translate(386.92 42.04)"/><path class="cls-6" d="M108.49,73.3c2.28,6.76,13.46,9.28,25,5.64" transform="translate(386.92 42.04)"/><polyline class="cls-7" points="484.55 136.15 476.47 151.78 480.51 151.78 484.55 138.06"/><polyline class="cls-8" points="502.83 138.01 502.66 155.06 504.86 154.52 503.34 139.96"/><polyline class="cls-8" points="464.73 135.1 457.29 148.78 459.2 149.22 464.29 136.88"/><path class="cls-1" d="M137.43,44.26A7.61,7.61,0,0,0,139,42.09l7.36-15.55a7.31,7.31,0,0,0-3.64-9.87L123.08,8A7.76,7.76,0,0,0,113,11.75L105.61,27.3a7.49,7.49,0,0,0-.68,2.56c-6.64-1.68-11.35-1.82-12.21,0-1.48,3.13,9.12,10.89,23.67,17.34s27.55,9.13,29,6C146.28,51.38,143.09,48,137.43,44.26Z" transform="translate(386.92 42.04)"/><path class="cls-5" d="M131.4,66.58a11,11,0,0,1-13.1,8.14,10.63,10.63,0,0,1-7.53-13.18C112.31,55.66,132.93,60.69,131.4,66.58Z" transform="translate(386.92 42.04)"/><path class="cls-9" d="M76.07,129.12V136a.9.9,0,0,0,.19.63,1.31,1.31,0,0,0,.67.35v.43H73.11v-.43a1.35,1.35,0,0,0,.67-.35A1,1,0,0,0,74,136V120.43a.93.93,0,0,0-.19-.61,1.35,1.35,0,0,0-.67-.35V119h9.63a18.17,18.17,0,0,1,3.15.21,5.94,5.94,0,0,1,2,.78,4.27,4.27,0,0,1,1.49,1.55,4.85,4.85,0,0,1,.63,2.47,4.77,4.77,0,0,1-1.16,3.22,4.68,4.68,0,0,1-2.24,1.45,14.37,14.37,0,0,1-3.88.4Zm0-1.74h6.87a15.6,15.6,0,0,0,2.27-.12,3.75,3.75,0,0,0,1.33-.47,3.36,3.36,0,0,0,0-5.41,3.58,3.58,0,0,0-1.32-.47,14,14,0,0,0-2.28-.13H76.07Z" transform="translate(386.92 42.04)"/><path class="cls-9" d="M101,122a9.63,9.63,0,0,1,6.46,2.09,7.65,7.65,0,0,1,1.33,10q-2.43,3.57-7.77,3.57a9.53,9.53,0,0,1-6.43-2.09,7.19,7.19,0,0,1-2.62-5.75,7.48,7.48,0,0,1,1.28-4.27A7.7,7.7,0,0,1,97,122.66,11.48,11.48,0,0,1,101,122Zm0,1.55a7.11,7.11,0,0,0-5.27,2,6.08,6.08,0,0,0,0,8.54,7.95,7.95,0,0,0,10.59,0,5.73,5.73,0,0,0,1.75-4.19,5.85,5.85,0,0,0-1.75-4.35A7.31,7.31,0,0,0,101,123.56Z" transform="translate(386.92 42.04)"/><path class="cls-9" d="M115.66,130.62V136a.94.94,0,0,0,.18.62,1.24,1.24,0,0,0,.64.35v.43h-3.6v-.43a1.26,1.26,0,0,0,.67-.35.89.89,0,0,0,.19-.62V123.63a.78.78,0,0,0-.19-.58,1.44,1.44,0,0,0-.67-.32v-.4h8.32a15.58,15.58,0,0,1,2.51.15,4.37,4.37,0,0,1,1.54.56,3.44,3.44,0,0,1,1.29,1.4,4.49,4.49,0,0,1,.46,2,4.31,4.31,0,0,1-.46,2,3.38,3.38,0,0,1-1.3,1.4,4.33,4.33,0,0,1-1.55.58,15.3,15.3,0,0,1-2.49.15Zm0-1.47h5.28a15.12,15.12,0,0,0,2.12-.11,2.92,2.92,0,0,0,1.17-.44,2.88,2.88,0,0,0,0-4.26,2.92,2.92,0,0,0-1.16-.43,13.47,13.47,0,0,0-2.13-.12h-5.28Z" transform="translate(386.92 42.04)"/><path class="cls-9" d="M67.4,162.13V169a.9.9,0,0,0,.19.63,1.39,1.39,0,0,0,.67.35v.43H64.44V170a1.44,1.44,0,0,0,.67-.35,1,1,0,0,0,.19-.63V153.44a.91.91,0,0,0-.19-.61,1.35,1.35,0,0,0-.67-.35v-.43h9.63a18.17,18.17,0,0,1,3.15.21,5.55,5.55,0,0,1,2,.78,4.27,4.27,0,0,1,1.49,1.55,5.11,5.11,0,0,1-.52,5.69A4.66,4.66,0,0,1,78,161.72a13.91,13.91,0,0,1-3.88.41Zm0-1.74h6.87a15.6,15.6,0,0,0,2.27-.12,3.88,3.88,0,0,0,1.34-.47,3.38,3.38,0,0,0,0-5.42,3.9,3.9,0,0,0-1.33-.47,15.57,15.57,0,0,0-2.28-.12H67.4Z" transform="translate(386.92 42.04)"/><path class="cls-9" d="M86.35,156.86v7.72a12,12,0,0,0,.17,2.46,2.14,2.14,0,0,0,.77,1.14,6.75,6.75,0,0,0,4.13,1c2.15,0,3.61-.39,4.37-1.18a2.18,2.18,0,0,0,.55-1.09,13,13,0,0,0,.14-2.29v-7.72a1.33,1.33,0,0,0-.18-.79,1.2,1.2,0,0,0-.68-.37v-.36h3.31v.36a1.22,1.22,0,0,0-.68.36,1.35,1.35,0,0,0-.18.8V165a8.24,8.24,0,0,1-.35,2.91A3.88,3.88,0,0,1,95.56,170a11.12,11.12,0,0,1-4.31.68c-2.63,0-4.48-.49-5.53-1.46a3.55,3.55,0,0,1-1-1.57,10.37,10.37,0,0,1-.26-2.7v-8.11a1.44,1.44,0,0,0-.17-.8,1.3,1.3,0,0,0-.69-.36v-.36h3.64v.36a1.24,1.24,0,0,0-.69.37A1.42,1.42,0,0,0,86.35,156.86Z" transform="translate(386.92 42.04)"/><path class="cls-9" d="M104.32,157.69v11.17a1.42,1.42,0,0,0,.17.79,1.17,1.17,0,0,0,.69.37v.36h-3.31V170a1.17,1.17,0,0,0,.69-.37,1.44,1.44,0,0,0,.16-.79v-12a1.36,1.36,0,0,0-.17-.8,1.26,1.26,0,0,0-.68-.36v-.36h4.88v.36c-.47.15-.7.38-.7.7a1.6,1.6,0,0,0,.51,1l8.86,9.93V156.86a1.36,1.36,0,0,0-.17-.8,1.26,1.26,0,0,0-.68-.36v-.36h3.31v.36a1.3,1.3,0,0,0-.69.36,1.44,1.44,0,0,0-.17.8v12a1.42,1.42,0,0,0,.17.79,1.17,1.17,0,0,0,.69.37v.36H114V170c.46-.12.7-.3.7-.55s-.22-.53-.65-1Z" transform="translate(386.92 42.04)"/><path class="cls-9" d="M123.87,164.56v4.3a1.33,1.33,0,0,0,.18.79,1.17,1.17,0,0,0,.68.37v.36H121.1V170a1.17,1.17,0,0,0,.68-.37,1.33,1.33,0,0,0,.18-.79v-12a1.35,1.35,0,0,0-.18-.8,1.22,1.22,0,0,0-.68-.36v-.36h3.63v.36a1.22,1.22,0,0,0-.68.36,1.35,1.35,0,0,0-.18.8v5.94l7.19-5.61a9.76,9.76,0,0,0,.91-.76.52.52,0,0,0,.18-.35c0-.19-.16-.32-.48-.38v-.36h4.22v.36a3.93,3.93,0,0,0-.74.2,4.41,4.41,0,0,0-.63.43l-6,4.69,6.64,8.45a1.45,1.45,0,0,0,.46.43,1.35,1.35,0,0,0,.57.12v.36h-4V170c.39-.1.59-.22.59-.36a2.43,2.43,0,0,0-.47-.78l-5.23-6.76Z" transform="translate(386.92 42.04)"/><path class="cls-9" d="M55.45,195.14V202a.9.9,0,0,0,.19.63,1.44,1.44,0,0,0,.67.35v.43H52.49V203a1.44,1.44,0,0,0,.67-.35,1,1,0,0,0,.19-.63V186.45a1,1,0,0,0-.19-.62,1.35,1.35,0,0,0-.67-.34v-.43h9.63a18.17,18.17,0,0,1,3.15.21,5.55,5.55,0,0,1,2,.78,4.32,4.32,0,0,1,1.49,1.54,4.92,4.92,0,0,1,.63,2.48,4.83,4.83,0,0,1-1.15,3.22A4.62,4.62,0,0,1,66,194.73a13.91,13.91,0,0,1-3.88.41Zm0-1.74h6.87a15.51,15.51,0,0,0,2.27-.12,3.89,3.89,0,0,0,1.34-.48,2.86,2.86,0,0,0,1.36-2.69,2.9,2.9,0,0,0-1.36-2.72,3.9,3.9,0,0,0-1.33-.47,15.57,15.57,0,0,0-2.28-.12H55.45Z" transform="translate(386.92 42.04)"/><path class="cls-9" d="M74.4,189.86v7.73a11.14,11.14,0,0,0,.18,2.46,2.07,2.07,0,0,0,.76,1.14,6.75,6.75,0,0,0,4.13,1c2.16,0,3.61-.39,4.37-1.18a2.18,2.18,0,0,0,.55-1.09,13,13,0,0,0,.14-2.29v-7.73a1.3,1.3,0,0,0-.18-.78,1.17,1.17,0,0,0-.68-.37v-.36H87v.36a1.22,1.22,0,0,0-.68.36,1.31,1.31,0,0,0-.18.79V198a8.24,8.24,0,0,1-.35,2.91A3.88,3.88,0,0,1,83.61,203a11.12,11.12,0,0,1-4.31.68q-3.94,0-5.53-1.46a3.45,3.45,0,0,1-1-1.57,10,10,0,0,1-.27-2.7v-8.12a1.32,1.32,0,0,0-.17-.79,1.26,1.26,0,0,0-.68-.36v-.36h3.63v.36a1.17,1.17,0,0,0-.68.37A1.3,1.3,0,0,0,74.4,189.86Z" transform="translate(386.92 42.04)"/><path class="cls-9" d="M92.37,190.7v11.17a1.42,1.42,0,0,0,.17.79,1.22,1.22,0,0,0,.69.37v.36H89.92V203a1.22,1.22,0,0,0,.69-.37,1.42,1.42,0,0,0,.17-.79v-12a1.31,1.31,0,0,0-.18-.79,1.22,1.22,0,0,0-.68-.36v-.36H94.8v.36c-.47.15-.7.38-.7.7a1.56,1.56,0,0,0,.51,1l8.87,9.94V189.86a1.31,1.31,0,0,0-.18-.79,1.22,1.22,0,0,0-.68-.36v-.36h3.31v.36a1.22,1.22,0,0,0-.68.36,1.31,1.31,0,0,0-.18.79v12a1.42,1.42,0,0,0,.17.79,1.22,1.22,0,0,0,.69.37v.36H102V203c.47-.12.7-.3.7-.55s-.22-.53-.65-1Z" transform="translate(386.92 42.04)"/><path class="cls-9" d="M110,201.87v-12a1.39,1.39,0,0,0-.17-.78,1.17,1.17,0,0,0-.69-.37v-.36h7.59a10.89,10.89,0,0,1,4.53.71,6.31,6.31,0,0,1,2.9,3,8.34,8.34,0,0,1,.91,3.83,8.19,8.19,0,0,1-1.21,4.36,5.87,5.87,0,0,1-2.65,2.45,11.38,11.38,0,0,1-4.48.71h-7.59V203a1.22,1.22,0,0,0,.69-.37A1.42,1.42,0,0,0,110,201.87Zm1.91,0h4.71a8,8,0,0,0,3.9-.72,4.72,4.72,0,0,0,2-2.5,7.82,7.82,0,0,0,.5-2.83,6.56,6.56,0,0,0-1.41-4.41,4.24,4.24,0,0,0-1.92-1.27,10.34,10.34,0,0,0-3.11-.38h-4.71Z" transform="translate(386.92 42.04)"/><path class="cls-9" d="M128.8,201.87v-12a1.31,1.31,0,0,0-.18-.79,1.26,1.26,0,0,0-.68-.36v-.36h3.63v.36a1.22,1.22,0,0,0-.68.36,1.31,1.31,0,0,0-.18.79v12a1.33,1.33,0,0,0,.18.79,1.23,1.23,0,0,0,.68.37v.36h-3.63V203a1.26,1.26,0,0,0,.68-.37A1.33,1.33,0,0,0,128.8,201.87Z" transform="translate(386.92 42.04)"/><path class="cls-9" d="M141.74,189.89v12a1.44,1.44,0,0,0,.16.79,1.3,1.3,0,0,0,.7.37v.36H139V203a1.23,1.23,0,0,0,.68-.37,1.33,1.33,0,0,0,.18-.79v-12h-4.9a1.42,1.42,0,0,0-.79.17,1.3,1.3,0,0,0-.36.69h-.36v-3.18h.36a1.22,1.22,0,0,0,.36.68,1.33,1.33,0,0,0,.79.18h11.71a1.29,1.29,0,0,0,.79-.18,1.17,1.17,0,0,0,.37-.68h.36v3.18h-.36a1.3,1.3,0,0,0-.37-.69,1.42,1.42,0,0,0-.79-.17Z" transform="translate(386.92 42.04)"/></svg>